<svg width="1392" height="636" viewBox="0 0 1392 636" fill="none" xmlns="http://www.w3.org/2000/svg">
    <g id="Carte GFW">
        <path id="Couloir 2-3"
              d="M347 323.5L313.5 358.5L353 396.5L379 370H432V360.5H452V332.5H432V306H410L391 286.5L350.5 327.5L347 323.5Z"
              fill="#D9D9D9" stroke="#9F32FF" stroke-width="2"/>
        <g id="Pavillon 3">
            <path id="Pavillon 3_2"
                  d="M347 323.5L250 424.5L180.5 360L186.5 354L35 212L131 109.5L235.5 207.5L229.5 214L347 323.5Z"
                  fill="#9F32FF" stroke="#D9D9D9" stroke-width="2"/>
            <g id="Group Ellipse Pav 3">
                <circle id="Ellipse Pav 3" cx="273" cy="138" r="39" fill="#D9D9D9" stroke="#9F32FF" stroke-width="2"/>
                <g id="Pav. 3" filter="url(#filter0_d_1_3)">
                    <path d="M245.087 145V130.455H251.096C252.185 130.455 253.125 130.668 253.915 131.094C254.711 131.515 255.324 132.105 255.755 132.862C256.186 133.615 256.401 134.491 256.401 135.49C256.401 136.494 256.181 137.372 255.741 138.125C255.305 138.873 254.682 139.453 253.873 139.865C253.063 140.277 252.102 140.483 250.989 140.483H247.282V137.713H250.336C250.866 137.713 251.309 137.621 251.664 137.436C252.024 137.251 252.296 136.993 252.481 136.662C252.665 136.326 252.758 135.935 252.758 135.49C252.758 135.04 252.665 134.652 252.481 134.325C252.296 133.994 252.024 133.738 251.664 133.558C251.304 133.378 250.861 133.288 250.336 133.288H248.603V145H245.087ZM260.819 145.185C260.123 145.185 259.505 145.069 258.965 144.837C258.43 144.6 258.006 144.245 257.694 143.771C257.386 143.293 257.232 142.694 257.232 141.974C257.232 141.368 257.339 140.857 257.552 140.44C257.765 140.024 258.058 139.685 258.432 139.425C258.806 139.164 259.237 138.968 259.725 138.835C260.213 138.698 260.733 138.606 261.287 138.558C261.908 138.501 262.407 138.442 262.786 138.381C263.165 138.314 263.439 138.222 263.61 138.104C263.785 137.981 263.873 137.808 263.873 137.585V137.55C263.873 137.185 263.747 136.903 263.496 136.705C263.245 136.506 262.907 136.406 262.481 136.406C262.021 136.406 261.652 136.506 261.373 136.705C261.093 136.903 260.916 137.178 260.84 137.528L257.637 137.415C257.732 136.752 257.975 136.16 258.368 135.639C258.766 135.114 259.311 134.702 260.002 134.403C260.698 134.1 261.534 133.949 262.509 133.949C263.205 133.949 263.847 134.032 264.434 134.197C265.021 134.358 265.532 134.595 265.968 134.908C266.403 135.215 266.74 135.594 266.976 136.044C267.218 136.494 267.339 137.008 267.339 137.585V145H264.072V143.48H263.986C263.792 143.849 263.544 144.162 263.241 144.418C262.942 144.673 262.59 144.865 262.182 144.993C261.78 145.121 261.325 145.185 260.819 145.185ZM261.891 142.912C262.265 142.912 262.601 142.836 262.9 142.685C263.203 142.533 263.444 142.325 263.624 142.06C263.804 141.79 263.894 141.477 263.894 141.122V140.085C263.795 140.137 263.674 140.185 263.532 140.227C263.394 140.27 263.243 140.31 263.077 140.348C262.912 140.386 262.741 140.419 262.566 140.447C262.391 140.476 262.223 140.502 262.062 140.526C261.735 140.578 261.456 140.658 261.224 140.767C260.996 140.876 260.821 141.018 260.698 141.193C260.58 141.364 260.52 141.567 260.52 141.804C260.52 142.164 260.648 142.438 260.904 142.628C261.164 142.817 261.493 142.912 261.891 142.912ZM279.654 134.091L275.911 145H271.934L268.198 134.091H271.856L273.866 141.605H273.979L275.996 134.091H279.654ZM282.255 145.206C281.744 145.206 281.306 145.026 280.941 144.666C280.581 144.306 280.404 143.871 280.409 143.359C280.404 142.857 280.581 142.429 280.941 142.074C281.306 141.714 281.744 141.534 282.255 141.534C282.738 141.534 283.164 141.714 283.534 142.074C283.908 142.429 284.097 142.857 284.102 143.359C284.097 143.7 284.007 144.01 283.832 144.29C283.661 144.569 283.436 144.792 283.157 144.957C282.883 145.123 282.582 145.206 282.255 145.206ZM295.279 145.199C294.171 145.199 293.189 145.009 292.331 144.631C291.479 144.247 290.807 143.719 290.314 143.047C289.822 142.375 289.571 141.6 289.562 140.724H293.099C293.113 141.042 293.215 141.323 293.404 141.57C293.593 141.811 293.851 142 294.178 142.138C294.505 142.275 294.876 142.344 295.293 142.344C295.71 142.344 296.077 142.27 296.394 142.124C296.716 141.972 296.967 141.766 297.147 141.506C297.327 141.241 297.414 140.937 297.41 140.597C297.414 140.256 297.317 139.953 297.118 139.688C296.92 139.422 296.638 139.216 296.273 139.07C295.913 138.923 295.487 138.849 294.995 138.849H293.581V136.349H294.995C295.426 136.349 295.805 136.278 296.131 136.136C296.463 135.994 296.721 135.795 296.905 135.54C297.09 135.279 297.18 134.981 297.175 134.645C297.18 134.318 297.102 134.032 296.941 133.786C296.785 133.535 296.564 133.34 296.28 133.203C296.001 133.066 295.677 132.997 295.307 132.997C294.919 132.997 294.566 133.066 294.249 133.203C293.937 133.34 293.688 133.535 293.503 133.786C293.319 134.036 293.222 134.328 293.212 134.659H289.853C289.862 133.793 290.104 133.03 290.577 132.372C291.051 131.709 291.695 131.191 292.509 130.817C293.328 130.443 294.261 130.256 295.307 130.256C296.349 130.256 297.265 130.438 298.056 130.803C298.847 131.167 299.462 131.664 299.903 132.294C300.343 132.919 300.563 133.627 300.563 134.418C300.568 135.237 300.3 135.911 299.76 136.442C299.225 136.972 298.537 137.299 297.694 137.422V137.536C298.821 137.668 299.671 138.033 300.243 138.629C300.821 139.226 301.108 139.972 301.103 140.866C301.103 141.709 300.854 142.457 300.357 143.111C299.865 143.759 299.178 144.271 298.297 144.645C297.421 145.014 296.415 145.199 295.279 145.199Z"
                          fill="#9F32FF"/>
                </g>
            </g>
        </g>
        <g id="Pavillon 2">
            <path id="Pavillon 2_2"
                  d="M622 261.5H473V303.5H452V483.5H492.5V539L503 529H515L521.5 520H622V301H606V274.5H622V261.5Z"
                  fill="#9F32FF" stroke="#D9D9D9" stroke-width="2"/>
            <g id="Group Ellipse Pav 2">
                <circle id="Ellipse Pav 2" cx="519" cy="195" r="39" fill="#D9D9D9" stroke="#9F32FF" stroke-width="2"/>
                <g id="Pav. 2" filter="url(#filter1_d_1_3)">
                    <path d="M491.38 202V187.455H497.389C498.478 187.455 499.418 187.668 500.208 188.094C501.004 188.515 501.617 189.105 502.048 189.862C502.479 190.615 502.694 191.491 502.694 192.49C502.694 193.494 502.474 194.372 502.034 195.125C501.598 195.873 500.975 196.453 500.166 196.865C499.356 197.277 498.395 197.483 497.282 197.483H493.575V194.713H496.629C497.159 194.713 497.602 194.621 497.957 194.436C498.317 194.251 498.589 193.993 498.774 193.662C498.958 193.326 499.051 192.935 499.051 192.49C499.051 192.04 498.958 191.652 498.774 191.325C498.589 190.994 498.317 190.738 497.957 190.558C497.597 190.378 497.154 190.288 496.629 190.288H494.896V202H491.38ZM507.112 202.185C506.416 202.185 505.798 202.069 505.258 201.837C504.723 201.6 504.299 201.245 503.987 200.771C503.679 200.293 503.525 199.694 503.525 198.974C503.525 198.368 503.632 197.857 503.845 197.44C504.058 197.024 504.351 196.685 504.725 196.425C505.099 196.164 505.53 195.968 506.018 195.835C506.506 195.698 507.026 195.606 507.58 195.558C508.201 195.501 508.7 195.442 509.079 195.381C509.458 195.314 509.732 195.222 509.903 195.104C510.078 194.981 510.166 194.808 510.166 194.585V194.55C510.166 194.185 510.04 193.903 509.789 193.705C509.538 193.506 509.2 193.406 508.774 193.406C508.314 193.406 507.945 193.506 507.666 193.705C507.386 193.903 507.209 194.178 507.133 194.528L503.93 194.415C504.025 193.752 504.268 193.16 504.661 192.639C505.059 192.114 505.604 191.702 506.295 191.403C506.991 191.1 507.827 190.949 508.802 190.949C509.498 190.949 510.14 191.032 510.727 191.197C511.314 191.358 511.825 191.595 512.261 191.908C512.696 192.215 513.033 192.594 513.269 193.044C513.511 193.494 513.632 194.008 513.632 194.585V202H510.365V200.48H510.279C510.085 200.849 509.837 201.162 509.534 201.418C509.235 201.673 508.883 201.865 508.475 201.993C508.073 202.121 507.618 202.185 507.112 202.185ZM508.184 199.912C508.558 199.912 508.894 199.836 509.193 199.685C509.496 199.533 509.737 199.325 509.917 199.06C510.097 198.79 510.187 198.477 510.187 198.122V197.085C510.088 197.137 509.967 197.185 509.825 197.227C509.687 197.27 509.536 197.31 509.37 197.348C509.204 197.386 509.034 197.419 508.859 197.447C508.684 197.476 508.516 197.502 508.355 197.526C508.028 197.578 507.749 197.658 507.517 197.767C507.289 197.876 507.114 198.018 506.991 198.193C506.873 198.364 506.813 198.567 506.813 198.804C506.813 199.164 506.941 199.438 507.197 199.628C507.457 199.817 507.786 199.912 508.184 199.912ZM525.947 191.091L522.204 202H518.227L514.491 191.091H518.149L520.159 198.605H520.272L522.289 191.091H525.947ZM528.548 202.206C528.037 202.206 527.599 202.026 527.234 201.666C526.874 201.306 526.697 200.871 526.702 200.359C526.697 199.857 526.874 199.429 527.234 199.074C527.599 198.714 528.037 198.534 528.548 198.534C529.031 198.534 529.457 198.714 529.827 199.074C530.201 199.429 530.39 199.857 530.395 200.359C530.39 200.7 530.3 201.01 530.125 201.29C529.954 201.569 529.729 201.792 529.45 201.957C529.175 202.123 528.875 202.206 528.548 202.206ZM536.039 202V199.472L541.345 194.827C541.742 194.467 542.081 194.138 542.36 193.839C542.64 193.536 542.853 193.233 542.999 192.93C543.146 192.623 543.22 192.289 543.22 191.929C543.22 191.527 543.132 191.183 542.957 190.899C542.782 190.61 542.54 190.388 542.232 190.232C541.925 190.075 541.572 189.997 541.174 189.997C540.772 189.997 540.419 190.08 540.116 190.246C539.813 190.407 539.576 190.641 539.406 190.949C539.24 191.257 539.157 191.631 539.157 192.071H535.826C535.826 191.081 536.049 190.227 536.494 189.507C536.939 188.787 537.564 188.233 538.369 187.845C539.178 187.452 540.118 187.256 541.188 187.256C542.292 187.256 543.25 187.44 544.065 187.81C544.879 188.179 545.509 188.695 545.954 189.358C546.404 190.016 546.629 190.781 546.629 191.652C546.629 192.206 546.517 192.755 546.295 193.3C546.072 193.844 545.672 194.446 545.095 195.104C544.522 195.762 543.707 196.55 542.651 197.469L540.911 199.074V199.166H546.806V202H536.039Z"
                          fill="#9F32FF"/>
                </g>
            </g>
        </g>
        <path id="Couloir 1-2" d="M578 236L833 170V201L622 252.5V261.5H578V236Z" fill="#D9D9D9" stroke="#9F32FF"
              stroke-width="2"/>
        <g id="Pavillon 1">
            <path id="Pavillon 1_2"
                  d="M833 556V170H864L872 174H927.5V160.5H1010.5V264H1180V231.5H1194V205H1347V556H833Z" fill="#9F32FF"
                  stroke="#D9D9D9" stroke-width="2"/>
            <rect id="Stand 4" x="919" y="379" width="37" height="51" fill="black"/>
            <rect id="Stand 3" x="1149" y="270" width="34" height="69" fill="black"/>
            <rect id="Stand 2" x="1073" y="299" width="42" height="46" fill="black"/>
            <rect id="Stand 1" x="987" y="305" width="75" height="40" fill="black"/>
            <g id="Group Ellipse Pav 1">
                <circle id="Ellipse Pav 1" cx="1090" cy="200" r="39" fill="#D9D9D9" stroke="#9F32FF" stroke-width="2"/>
                <g id="Pav. 1" filter="url(#filter2_d_1_3)">
                    <path d="M1063.79 207V192.455H1069.79C1070.88 192.455 1071.82 192.668 1072.61 193.094C1073.41 193.515 1074.02 194.105 1074.45 194.862C1074.88 195.615 1075.1 196.491 1075.1 197.49C1075.1 198.494 1074.88 199.372 1074.44 200.125C1074 200.873 1073.38 201.453 1072.57 201.865C1071.76 202.277 1070.8 202.483 1069.69 202.483H1065.98V199.713H1069.03C1069.57 199.713 1070.01 199.621 1070.36 199.436C1070.72 199.251 1071 198.993 1071.18 198.662C1071.36 198.326 1071.46 197.935 1071.46 197.49C1071.46 197.04 1071.36 196.652 1071.18 196.325C1071 195.994 1070.72 195.738 1070.36 195.558C1070 195.378 1069.56 195.288 1069.03 195.288H1067.3V207H1063.79ZM1079.52 207.185C1078.82 207.185 1078.2 207.069 1077.66 206.837C1077.13 206.6 1076.71 206.245 1076.39 205.771C1076.09 205.293 1075.93 204.694 1075.93 203.974C1075.93 203.368 1076.04 202.857 1076.25 202.44C1076.46 202.024 1076.76 201.685 1077.13 201.425C1077.51 201.164 1077.94 200.968 1078.42 200.835C1078.91 200.698 1079.43 200.606 1079.99 200.558C1080.61 200.501 1081.11 200.442 1081.49 200.381C1081.86 200.314 1082.14 200.222 1082.31 200.104C1082.48 199.981 1082.57 199.808 1082.57 199.585V199.55C1082.57 199.185 1082.45 198.903 1082.2 198.705C1081.94 198.506 1081.61 198.406 1081.18 198.406C1080.72 198.406 1080.35 198.506 1080.07 198.705C1079.79 198.903 1079.61 199.178 1079.54 199.528L1076.34 199.415C1076.43 198.752 1076.67 198.16 1077.07 197.639C1077.47 197.114 1078.01 196.702 1078.7 196.403C1079.4 196.1 1080.23 195.949 1081.21 195.949C1081.9 195.949 1082.55 196.032 1083.13 196.197C1083.72 196.358 1084.23 196.595 1084.67 196.908C1085.1 197.215 1085.44 197.594 1085.68 198.044C1085.92 198.494 1086.04 199.008 1086.04 199.585V207H1082.77V205.48H1082.69C1082.49 205.849 1082.24 206.162 1081.94 206.418C1081.64 206.673 1081.29 206.865 1080.88 206.993C1080.48 207.121 1080.02 207.185 1079.52 207.185ZM1080.59 204.912C1080.96 204.912 1081.3 204.836 1081.6 204.685C1081.9 204.533 1082.14 204.325 1082.32 204.06C1082.5 203.79 1082.59 203.477 1082.59 203.122V202.085C1082.49 202.137 1082.37 202.185 1082.23 202.227C1082.09 202.27 1081.94 202.31 1081.78 202.348C1081.61 202.386 1081.44 202.419 1081.27 202.447C1081.09 202.476 1080.92 202.502 1080.76 202.526C1080.43 202.578 1080.15 202.658 1079.92 202.767C1079.7 202.876 1079.52 203.018 1079.4 203.193C1079.28 203.364 1079.22 203.567 1079.22 203.804C1079.22 204.164 1079.35 204.438 1079.6 204.628C1079.86 204.817 1080.19 204.912 1080.59 204.912ZM1098.35 196.091L1094.61 207H1090.63L1086.9 196.091H1090.55L1092.56 203.605H1092.68L1094.7 196.091H1098.35ZM1100.95 207.206C1100.44 207.206 1100.01 207.026 1099.64 206.666C1099.28 206.306 1099.1 205.871 1099.11 205.359C1099.1 204.857 1099.28 204.429 1099.64 204.074C1100.01 203.714 1100.44 203.534 1100.95 203.534C1101.44 203.534 1101.86 203.714 1102.23 204.074C1102.61 204.429 1102.8 204.857 1102.8 205.359C1102.8 205.7 1102.71 206.01 1102.53 206.29C1102.36 206.569 1102.14 206.792 1101.86 206.957C1101.58 207.123 1101.28 207.206 1100.95 207.206ZM1115.17 192.455V207H1111.66V195.736H1111.58L1108.32 197.724V194.685L1111.91 192.455H1115.17Z"
                          fill="#9F32FF"/>
                </g>
            </g>
        </g>
    </g>
    <defs>
        <filter id="filter0_d_1_3" x="241.087" y="130.256" width="64.0227" height="22.9503" filterUnits="userSpaceOnUse"
                color-interpolation-filters="sRGB">
            <feFlood flood-opacity="0" result="BackgroundImageFix"/>
            <feColorMatrix in="SourceAlpha" type="matrix" values="0 0 0 0 0 0 0 0 0 0 0 0 0 0 0 0 0 0 127 0"
                           result="hardAlpha"/>
            <feOffset dy="4"/>
            <feGaussianBlur stdDeviation="2"/>
            <feComposite in2="hardAlpha" operator="out"/>
            <feColorMatrix type="matrix" values="0 0 0 0 0 0 0 0 0 0 0 0 0 0 0 0 0 0 0.5 0"/>
            <feBlend mode="normal" in2="BackgroundImageFix" result="effect1_dropShadow_1_3"/>
            <feBlend mode="normal" in="SourceGraphic" in2="effect1_dropShadow_1_3" result="shape"/>
        </filter>
        <filter id="filter1_d_1_3" x="487.38" y="187.256" width="63.4261" height="22.9503" filterUnits="userSpaceOnUse"
                color-interpolation-filters="sRGB">
            <feFlood flood-opacity="0" result="BackgroundImageFix"/>
            <feColorMatrix in="SourceAlpha" type="matrix" values="0 0 0 0 0 0 0 0 0 0 0 0 0 0 0 0 0 0 127 0"
                           result="hardAlpha"/>
            <feOffset dy="4"/>
            <feGaussianBlur stdDeviation="2"/>
            <feComposite in2="hardAlpha" operator="out"/>
            <feColorMatrix type="matrix" values="0 0 0 0 0 0 0 0 0 0 0 0 0 0 0 0 0 0 0.5 0"/>
            <feBlend mode="normal" in2="BackgroundImageFix" result="effect1_dropShadow_1_3"/>
            <feBlend mode="normal" in="SourceGraphic" in2="effect1_dropShadow_1_3" result="shape"/>
        </filter>
        <filter id="filter2_d_1_3" x="1059.79" y="192.455" width="59.3849" height="22.7514" filterUnits="userSpaceOnUse"
                color-interpolation-filters="sRGB">
            <feFlood flood-opacity="0" result="BackgroundImageFix"/>
            <feColorMatrix in="SourceAlpha" type="matrix" values="0 0 0 0 0 0 0 0 0 0 0 0 0 0 0 0 0 0 127 0"
                           result="hardAlpha"/>
            <feOffset dy="4"/>
            <feGaussianBlur stdDeviation="2"/>
            <feComposite in2="hardAlpha" operator="out"/>
            <feColorMatrix type="matrix" values="0 0 0 0 0 0 0 0 0 0 0 0 0 0 0 0 0 0 0.5 0"/>
            <feBlend mode="normal" in2="BackgroundImageFix" result="effect1_dropShadow_1_3"/>
            <feBlend mode="normal" in="SourceGraphic" in2="effect1_dropShadow_1_3" result="shape"/>
        </filter>
    </defs>
</svg>
